<svg id="Layer_1" data-name="Layer 1" xmlns="http://www.w3.org/2000/svg" viewBox="0 0 300 300"><defs><style>.cls-1{fill:#0098f7;}.cls-2,.cls-3{fill:#fff;}.cls-3{stroke:#221f1f;stroke-miterlimit:10;stroke-width:5px;}</style></defs><title>Squre</title><rect class="cls-1" width="300" height="300"/><path class="cls-2" d="M219.24,56.65A16.16,16.16,0,0,0,206.79,51H112.26c-9,0-16.6,7.74-16.6,16.9V106.3a16.45,16.45,0,0,0,32.9,0V82.14h78.5A15.63,15.63,0,0,0,222.53,69.2,15.14,15.14,0,0,0,219.24,56.65Z" transform="translate(0 0)"/><path class="cls-2" d="M199.2,148a16.05,16.05,0,0,0-11.44-4.85H111.45a15.81,15.81,0,0,0-15.79,15.79v88.69a16.88,16.88,0,0,0,5,11.92,16,16,0,0,0,11.35,4.7h0.17a16.45,16.45,0,0,0,16.41-16.6v-73.4h59.3A15.61,15.61,0,0,0,203.55,159,15.1,15.1,0,0,0,199.2,148Z" transform="translate(0 0)"/><path class="cls-3" d="M135.67,157.64" transform="translate(0 0)"/></svg>