<svg id="Layer_1" data-name="Layer 1" xmlns="http://www.w3.org/2000/svg" viewBox="0 0 337 337"><defs><style>.cls-1{fill:#b8322f;}.cls-2{fill:none;stroke:#fff;stroke-miterlimit:10;stroke-width:11px;}.cls-3{fill:#fff;}</style></defs><title>logo-round</title><circle class="cls-1" cx="168.5" cy="168.5" r="168.5"/><circle class="cls-2" cx="110.5" cy="69.5" r="15"/><circle class="cls-2" cx="120.5" cy="199.5" r="15"/><path class="cls-3" d="M270.74,94H158.06a20.23,20.23,0,0,1,.36,14h98.31a1.83,1.83,0,0,1,1.86,2l-1.71,24a2.18,2.18,0,0,1-2.14,2h-114a1.77,1.77,0,0,0-1.8,2l5.6,56a2.26,2.26,0,0,0,2.2,2h88a1.83,1.83,0,0,1,1.86,2l-1.71,24a2.18,2.18,0,0,1-2.14,2h-42a2.2,2.2,0,0,0-2.16,2l-5.69,72a2.2,2.2,0,0,1-2.16,2h-26a1.82,1.82,0,0,1-1.84-2l4.16-52.74A20.09,20.09,0,0,1,143,243.81L136.91,312a1.8,1.8,0,0,0,1.82,2h56a2.2,2.2,0,0,0,2.16-2l5.69-72a2.2,2.2,0,0,1,2.16-2h40a2.18,2.18,0,0,0,2.14-2l3.71-52a1.83,1.83,0,0,0-1.86-2h-88a2.32,2.32,0,0,1-2.25-2L155,152a1.72,1.72,0,0,1,1.75-2h110a2.18,2.18,0,0,0,2.14-2l3.71-52A1.83,1.83,0,0,0,270.74,94Z" transform="translate(-31.5 -31.5)"/></svg>